<?xml version="1.0" standalone="no"?>
<!DOCTYPE svg PUBLIC "-//W3C//DTD SVG 20010904//EN"
 "http://www.w3.org/TR/2001/REC-SVG-20010904/DTD/svg10.dtd">
<svg version="1.0" xmlns="http://www.w3.org/2000/svg"
 width="2460.000000pt" height="1536.000000pt" viewBox="0 0 2460.000000 1536.000000"
 preserveAspectRatio="xMidYMid meet">
<metadata>
Created by potrace 1.16, written by Peter Selinger 2001-2019
</metadata>
<rect width="100%" height="100%" fill="#f0c060" />
<g transform="translate(0.000000,1536.000000) scale(0.100000,-0.100000)" fill="#0f2137" stroke="none">
fill="#0f2137" stroke="none">
<path d="M0 7680 l0 -7680 12300 0 12300 0 0 7680 0 7680 -12300 0 -12300 0 0
-7680z m12015 3560 c236 -19 511 -80 742 -165 241 -88 559 -267 757 -425 119
-95 317 -291 419 -415 556 -677 765 -1586 557 -2429 -86 -352 -257 -713 -469
-996 l-79 -105 76 -80 c42 -44 133 -137 202 -207 l125 -128 80 80 80 80 782
-783 c431 -430 794 -798 809 -817 48 -63 94 -176 106 -258 27 -190 -68 -401
-229 -508 -158 -105 -342 -118 -513 -38 -73 34 -95 55 -885 844 l-810 810 85
85 85 85 -209 209 -209 209 -89 -67 c-383 -289 -874 -474 -1382 -522 -160 -15
-501 -7 -646 16 -503 78 -939 265 -1340 575 -113 88 -349 321 -444 440 -323
404 -525 880 -593 1399 -23 178 -23 527 1 686 69 474 204 833 453 1208 271
409 688 766 1133 968 437 200 933 287 1405 249z"/>
<path d="M11635 11113 c-456 -29 -948 -193 -1308 -436 -166 -112 -251 -180
-386 -312 -460 -447 -731 -1018 -792 -1669 -15 -167 -6 -460 20 -631 68 -447
245 -853 539 -1235 96 -123 350 -374 474 -466 394 -293 842 -473 1308 -525
135 -15 465 -15 600 0 304 34 636 133 897 268 705 363 1215 1023 1387 1793 42
189 59 348 60 555 1 289 -44 566 -134 837 -346 1037 -1250 1739 -2341 1817
-138 10 -214 11 -324 4z m475 -388 c387 -58 733 -204 1052 -442 135 -101 346
-312 440 -439 248 -335 394 -692 444 -1085 20 -164 15 -511 -10 -659 -41 -236
-99 -417 -201 -625 -125 -255 -257 -437 -466 -642 -183 -179 -354 -300 -583
-413 -468 -230 -1004 -289 -1521 -168 -311 72 -652 237 -890 429 -369 298
-616 654 -758 1096 -177 544 -129 1186 124 1699 118 239 263 438 456 624 390
379 862 592 1423 644 87 8 386 -4 490 -19z"/>
<path d="M11540 10599 c-262 -32 -532 -115 -750 -231 -629 -334 -1044 -939
-1130 -1648 -23 -189 -7 -549 32 -710 82 -346 222 -634 433 -895 41 -49 92
-108 114 -130 l41 -39 0 382 0 382 295 0 295 0 0 -588 0 -589 28 -13 c65 -30
166 -70 178 -70 12 0 14 170 14 1045 l0 1045 294 0 294 0 -2 -1082 c-1 -596 0
-1093 2 -1105 4 -22 8 -23 113 -23 l109 0 2 925 3 926 290 0 290 0 3 -870 2
-869 58 22 c31 13 81 33 110 46 l52 22 0 1244 0 1243 291 3 c160 2 293 1 295
-1 2 -2 4 -468 4 -1035 l1 -1031 65 70 c258 276 444 637 519 1010 133 658 -40
1326 -472 1826 -152 174 -270 278 -456 400 -258 169 -502 264 -832 325 -106
19 -469 28 -585 13z m1665 -729 c3 -5 3 -111 -1 -235 l-7 -225 -64 0 -63 0 0
118 -1 117 -457 -464 c-305 -309 -463 -463 -473 -459 -7 3 -75 50 -149 105
-444 326 -586 430 -597 436 -8 5 -192 -173 -527 -510 l-515 -518 -48 48 -48
47 555 555 c305 305 558 555 562 555 6 0 481 -346 662 -483 49 -37 92 -67 96
-67 8 0 840 837 840 845 0 3 -54 5 -120 5 l-120 0 0 65 0 65 198 3 c108 1 214
3 234 5 20 1 40 -2 43 -8z"/>
<path d="M12848 7753 c-2 -626 -2 -1140 -1 -1142 5 -8 168 96 244 157 l79 62
0 1030 0 1030 -160 0 -160 0 -2 -1137z"/>
<path d="M11220 7406 l0 -1004 68 -16 c37 -8 99 -20 137 -26 39 -6 80 -13 93
-16 l22 -4 0 1035 0 1035 -160 0 -160 0 0 -1004z"/>
<path d="M12030 7195 c0 -500 4 -855 9 -855 18 0 247 41 283 51 l38 10 0 824
0 825 -165 0 -165 0 0 -855z"/>
<path d="M10410 7203 l0 -378 61 -48 c64 -52 238 -167 251 -167 4 0 8 218 8
485 l0 485 -160 0 -160 0 0 -377z"/>
<path d="M13733 6486 l-112 -112 203 -203 202 -202 112 113 112 112 -37 40
c-127 134 -357 366 -362 365 -3 -1 -56 -52 -118 -113z"/>
<path d="M14270 6022 c-129 -130 -253 -256 -274 -280 l-39 -44 109 -109 c60
-60 113 -109 119 -109 5 0 134 124 285 275 l275 275 -115 115 c-63 63 -117
115 -120 115 -3 -1 -111 -107 -240 -238z"/>
<path d="M14556 5654 l-279 -276 594 -594 c684 -685 640 -649 809 -649 96 0
110 3 165 29 76 38 144 106 187 187 32 61 33 69 33 174 0 182 37 135 -644 817
l-586 587 -279 -275z"/>
</g>
</svg>
